<?xml version="1.0" encoding="UTF-8"?>
<svg id="Ebene_2" data-name="Ebene 2" xmlns="http://www.w3.org/2000/svg" viewBox="0 0 93.95 142.01">
  <defs>
    <style>
      .cls-1 {
        fill: #ee751b;
      }

      .cls-2 {
        fill: #17428d;
      }

      .cls-3 {
        fill: #212121;
      }

      .cls-4 {
        fill: #9b9a9a;
      }

      .cls-5 {
        fill: none;
        stroke: #317bbf;
        stroke-linecap: round;
        stroke-linejoin: round;
        stroke-width: 0px;
      }
    </style>
  </defs>
  <g id="Logo">
    <g>
      <path class="cls-3" d="M56.97,101.63l-16.4-16.4c6.63-8.23,6.68-19.95,.13-28.24l16.44-16.44c.24,.19,.48,.35,.72,.52-.92-.68-1.81-1.4-2.64-2.23-8.87-8.87-8.87-23.24,0-32.11,8.87-8.87,23.24-8.87,32.11,0,.81,.81,1.54,1.66,2.2,2.55-.17-.23-.32-.47-.5-.69-7.8-9.83-22.09-11.48-31.93-3.68-9.83,7.8-11.48,22.09-3.68,31.93l-16.42,16.42c.64,.52,1.27,1.07,1.87,1.66,8.89,8.89,8.89,23.3,0,32.19-.65,.65-1.33,1.23-2.03,1.79l16.46,16.46c-.2,.25-.38,.51-.56,.77,.72-1.01,1.51-1.98,2.41-2.89,.59-.59,1.2-1.13,1.83-1.64Z"/>
      <path class="cls-1" d="M38.86,54.93c-.6-.6-1.22-1.15-1.87-1.66-.32-.26-.66-.48-.99-.72-.1-.07-.19-.14-.29-.21-8.87-6.16-21.14-5.32-29.05,2.59-8.89,8.89-8.89,23.3,0,32.19,8.24,8.24,21.23,8.83,30.16,1.79,.7-.55,1.39-1.14,2.03-1.79,8.89-8.89,8.89-23.3,0-32.19Z"/>
      <path class="cls-2" d="M78.82,97.97c-.08-.03-.15-.05-.23-.08-.53-.18-1.06-.34-1.6-.48-.27-.07-.53-.14-.8-.2-.28-.06-.57-.12-.85-.17-.5-.09-1.01-.17-1.52-.23-.17-.02-.34-.03-.52-.05-.6-.06-1.21-.1-1.82-.11-.04,0-.08,0-.12,0-.65,0-1.31,.02-1.96,.07-.1,0-.2,.02-.3,.02-.6,.05-1.19,.13-1.78,.24-.14,.02-.27,.05-.41,.07-.56,.11-1.12,.24-1.68,.39-.15,.04-.29,.08-.44,.12-.56,.16-1.11,.35-1.66,.56-.13,.05-.26,.09-.39,.14-.59,.24-1.18,.51-1.76,.8-.07,.04-.15,.07-.22,.11-1.33,.69-2.61,1.5-3.81,2.47-.63,.51-1.24,1.05-1.83,1.64-.9,.9-1.69,1.88-2.41,2.89-.32,.45-.62,.9-.9,1.37-.12,.2-.24,.4-.36,.61-.19,.34-.38,.68-.56,1.02-.04,.08-.08,.17-.12,.25-.18,.37-.36,.74-.51,1.12-.11,.27-.22,.54-.32,.81-.12,.33-.24,.67-.35,1-.11,.33-.21,.67-.3,1.01-.12,.43-.23,.87-.32,1.31-.05,.23-.09,.47-.13,.7-.09,.51-.17,1.03-.22,1.54-.02,.18-.04,.35-.05,.53-.04,.53-.07,1.07-.08,1.6,0,.2,0,.41,0,.61,0,.48,.03,.96,.07,1.43,.02,.31,.06,.62,.09,.93,.04,.35,.09,.7,.15,1.05,.08,.47,.17,.93,.28,1.39,.04,.18,.09,.36,.13,.54,.16,.61,.34,1.22,.55,1.81,.01,.03,.02,.06,.03,.09,1.09,3.1,2.85,6.02,5.33,8.5,8.87,8.87,23.24,8.87,32.1,0,8.87-8.87,8.87-23.24,0-32.1-2.46-2.46-5.35-4.21-8.43-5.29Z"/>
      <path class="cls-5" d="M71.5,96.64c.61,0,1.21,.05,1.82,.11"/>
      <path class="cls-5" d="M73.83,96.8c.51,.06,1.01,.14,1.52,.23"/>
      <path class="cls-5" d="M76.2,97.21c.27,.06,.53,.13,.8,.2"/>
      <path class="cls-5" d="M78.59,97.89c.08,.03,.15,.05,.23,.08"/>
      <path class="cls-4" d="M55.22,6.74c-8.87,8.87-8.87,23.24,0,32.11,.83,.83,1.72,1.56,2.64,2.23,8.88,6.53,21.43,5.8,29.46-2.23,5.41-5.41,7.5-12.88,6.31-19.89-.01-.07-.02-.14-.03-.2-.09-.53-.22-1.05-.35-1.57-.06-.22-.1-.44-.16-.66-.1-.37-.24-.73-.36-1.09-.12-.36-.24-.73-.38-1.08-.08-.21-.19-.41-.27-.62-.22-.5-.43-1-.69-1.48-.02-.04-.05-.08-.07-.12-.27-.51-.56-1-.87-1.49-.27-.42-.55-.84-.85-1.24-.03-.04-.05-.07-.08-.11-.66-.89-1.39-1.74-2.2-2.55-8.87-8.87-23.24-8.87-32.11,0Z"/>
    </g>
  </g>
</svg>
